<?xml version="1.0" encoding="utf-8"?>
<!-- Generator: Adobe Illustrator 17.1.0, SVG Export Plug-In . SVG Version: 6.00 Build 0)  -->
<!DOCTYPE svg PUBLIC "-//W3C//DTD SVG 1.1//EN" "http://www.w3.org/Graphics/SVG/1.1/DTD/svg11.dtd">
<svg version="1.1" id="レイヤー_1" xmlns="http://www.w3.org/2000/svg" xmlns:xlink="http://www.w3.org/1999/xlink" x="0px"
	 y="0px" viewBox="0 0 328.8 143.3" enable-background="new 0 0 328.8 143.3" xml:space="preserve">
<g>
	<path fill="#040000" d="M324.6,102.9c0.1,0,0.3-0.2,0.5-0.4c0.4-0.3,0.7-0.7,1-1.2c1.6-2.1,3-5,2.7-7.8c-0.3-2.9-1.7-6.7-5.6-6.8
		c-5.6,0-12.5,3.6-16.9,9c-0.3-0.2-0.6-0.4-0.9-0.6c-1.3-0.9-2.5-1.8-3.7-3c-0.8-0.7-2-0.7-2.7,0c-0.7,0.8-0.7,2,0,2.7
		c1.4,1.4,2.8,2.4,4.1,3.4c0.3,0.2,0.5,0.4,0.8,0.6c-4,5.8-5,12.2-5.2,18c-2.3-1.1-8.9-4.5-14.1-2.3c-5.6,2.4-8.4,6.8-7.5,12.2
		c1.1,7.1,8.2,14,14.9,14.4c3.1,0.1,6.6-1.4,8.8-4.1c2.2-2.4,2.3-5.9,2.4-13.5c2.2,0.7,7.8,2.7,11.4,3.8c5,1.6,9.8,3.7,10.6,0.6
		c0.9-3-2.5-3.3-7.4-4.8c-3.9-1.2-11.6-3.7-14.5-4.9c0.5-7.4,2.5-12.3,4.3-16.2C313.2,104.7,320.6,105.8,324.6,102.9z M322.3,91.1
		c2.4,0.9,2.3,1.8,2.4,3.1c0.2,1.7-0.7,3-2,4.5c-0.1,0.1-0.2,0.2-0.3,0.4c-2.2,2.2-8.8,2.9-12.3-0.7C314.2,93,320.1,90.3,322.3,91.1
		z M298.7,130.8c-0.6,4-3.6,6.1-6.5,5.9c-4.7-0.3-10.1-5.7-10.9-10.8c-0.5-3.3,2-6.9,5.6-7.4c3.5-0.5,6.5,1.4,11.8,3.4
		C298.8,124.3,299.3,125.5,298.7,130.8z"/>
	<path fill="#040000" d="M34.7,77.5c-5.3,1.1-8.7,4.9-12,8.7c-0.1-0.3-0.1-0.8-0.2-1.3c-0.2-2,3.3-7.7,5.3-9.9
		c2-2.2,8.5-10.4,9.4-11.4c0.5-0.5,1.4-2.1,0-2.8c-1.3-0.7-2.8,0.7-2.8,0.7c-4.8,4.7-19.8,20.1-15.3,28.2c-4,5.9-17.1,22.5-8.3,28
		C7,126.9,6,129.6,4.2,132.4c-1.8,2.8-4.2,6-4.2,7.5c0,1.5,0.5,2.8,1.4,3.2c0.9,0.4,3.4,0.1,5.1-2.4c1.7-2.5,5.3-16,9.7-21.8
		c9.1,0.5,16.5-4.9,19-10.2c2.9-6.7-2.6-7.9-4.3-7.8c-5.5,0.3-12.4,6.2-16.8,12.7c-0.8-0.4-1.8-1.5-1.6-2.9
		c1.1-6.1,6.7-13.9,10.2-18.5c0.7,0.2,1.5,0.4,2.3,0.4c4.5,0,10.2-3.4,12.6-7.4c1.5-2.6,1.3-5.4-0.2-7.1
		C36.5,77.5,34.7,77.5,34.7,77.5z M30.4,104.6c0.6,0,2.1,0.7,1.4,2.3c-0.7,1.5-3.3,4.3-5.8,5.5c-2.4,1.2-4.9,2.1-7.8,2.1
		C20.5,110.9,25.5,105.5,30.4,104.6z M34.3,84.2c-1.7,2.8-6.6,5.3-9.2,4.5c2.5-4.2,8.4-8.6,9.5-7C35.3,82.6,34.9,83.2,34.3,84.2z"/>
	<path fill="#040000" d="M213.5,114.4c-1.8,1.5-8.3,8.1-14.3,11.5c-5.5,3.1-12.4,4.5-18.8,3.4c1.9-2.2,4.4-5.8,4.7-9.4
		c0.2-2,0-4.5-2.5-5.4c-4.6-1.6-10.1,2-11.5,7.6c-0.8,3-1,6.6,1.1,8.6c-7,5.3-13,6-19.1,5.2c-7.2-1-8.4-4.3-7.6-11
		c0.8-6.3,4.4-12.1,9.7-18.5c0.1,0,0.3-0.1,0.4-0.2c1.3,0.9,2.8,1.3,4.4,1.3c3.2,0,6.6-2,8.8-4.9c2.5-3.4,3.6-6.5,0.8-9.2
		c-2.4-2.4-8.8,0.6-13.8,6.4c-2.4-7.6,12.6-19.5,16.9-27.7c0.1-0.1,0.5-0.9,0.5-1c2-3.7,2.2-5,2.1-7.5c0-0.9-0.7-2.4-1.8-2.6
		c-0.9-0.2-2.2,0.8-2.2,1.7c-0.2,4-0.8,6.4-3.7,10.8c-7.1,9.4-20.1,20.8-15.8,30.2c-2.1,2.1-4.1,5.1-6.1,7.8
		c-3.6,4.9-6.5,14.7-5.7,20.1c1.1,5.9,5.5,8.5,11.7,9.3c5.6,0.7,14.4,0,23.4-7c2.2,0.9,4.4,1,7.4,1.4c3.4,0.4,11.2-1.2,17.5-4.4
		c6.3-3.2,13.5-10.8,15.3-12.8c1.8-2.1,2.5-3.6,1.9-4.4C216.9,112.6,214.8,113.3,213.5,114.4z M166.6,96.7c1.3,0.9,0,3.1-0.9,4.1
		c-1.8,2-5.2,2.6-6.9,1.2C162.2,97.9,165.4,95.8,166.6,96.7z M175.6,122.5c0.4-1.7,2.1-3.8,3.6-3.8c1.5,0,1.5,1,1.5,1.7
		c-0.1,1.9-1.8,4.6-3.7,6.7C175.3,126.1,175.2,124.1,175.6,122.5z"/>
	<path fill="#040000" d="M98.8,116.6c-1.5,1.8-2.7,3.8-3.7,4.9c-0.9,1.1-1.8,2-1.8,2c-5.1,6.2-12.7,11.7-18.5,11.5
		c-1.8-0.1-3.3-0.7-4.7-1.9c0.6-0.5,1.4-1,2.1-1.5c3.1-2.1,7.6-5.3,7.2-9.5c-0.4-4.1-6-4.8-9.5-3.6c-3.9,1.5-7.8,5.6-7.5,10.4
		c0.2,0.9,0.4,1.7,0.7,2.6c-3.7,1.6-8.4,2.6-11.1,1.5c-0.1,0-0.1-0.1-0.2-0.1c-3.2-1.8-0.9-5.4,1.3-8.8c4.7-6.6,11.8-11.2,19.7-16.5
		c10.4-7,21.1-13.6,25.4-25c1.1-3.5-0.5-5.8-3-7.6c-5.2-3.6-13.3,0.3-20.7,3.3c-2.2-2.4-4.1-3.2-6.2-3.4c-4.6-0.3-9.3,3.4-12.8,5.9
		c-0.6,0.4-2.9,2.3-1.7,3.8c1.2,1.5,3.2-0.2,3.9-0.6C63,80.3,68,77.4,71,80c-1.9,0.8-4.4,1.8-7.4,4.6c-3,2.8-3.1,4.6-2.9,6.2
		c0.2,1.7,1.5,3.9,5.6,3.8c4-0.1,7.3-2.6,9.4-7.5c0.9-1.8,0.9-3.6,0.3-5.3c11.5-5,15-4.7,16.4-3.6c1.5,1.2,2.2,2.9,1.3,4.9
		c-4.3,8.2-12.4,13-22.4,19.7c-10.4,7-21.5,13.9-26,25.7c0,0-0.5,1.4,0.1,3.7s2.6,3.6,5.2,4.6c1.3,0.5,2.6,0.7,4,0.7
		c3.9,0,8.5-1.3,11.4-2.8c2.3,2.8,5.2,4.2,8.6,4.2c0.1,0,0.3,0,0.4,0c7.8,0,18.1-7.4,23.3-13.8c2.5-2.9,3.6-4.4,4.5-5.8
		c1-1.4,1.6-3,0.3-4.1C101.8,114.3,100.5,114.5,98.8,116.6z M72.6,84.5c-1.9,5.1-5.7,7.3-6.9,6.6c-1.2-0.7-1.1-2.2-0.1-3.4
		c1-1.2,2.1-2,3.2-2.7c1.1-0.7,2.6-1.4,3.8-1.9c0.1,0,0.1-0.1,0.2-0.1C72.9,83.5,72.8,84,72.6,84.5z M66.9,129.6
		c-0.2-0.5-0.1-0.7-0.2-1.2c-0.1-2.1,1.7-4.8,4.4-5.8c0.5-0.2,1.3-0.4,1.9-0.4c0.6,0,1.8,0,1.6,1.2c-0.3,1.2-1.9,2.8-4.7,4.6
		C68.9,128.6,68.1,129.1,66.9,129.6z"/>
	<path fill="#040000" d="M284.8,89.2c0.1-0.1,0.3-0.2,0.4-0.3l2-1.7c6.8-5.6,17.2-16,15.4-22.5c-1.8-6.4-9.7-5.1-12.4-4
		c-0.1,0-0.3,0.1-0.4,0.2l0,0c-0.1,0-0.1,0.1-0.2,0.1c-1.3,0.6-2.4,1.4-3.4,2.5c-3.8,3.7-6.7,10.2-9.1,19.5
		c-0.8,2.9-1.7,5.9-2.8,8.6c-1.6,1.2-7.2,5.4-12.1,6c-0.7,0-1.5-0.1-2.4-0.3c-1.5-0.3-2.4-1-2.9-2c3.7-2.3,8-5.2,10.6-9.3
		c1-1.6,2-4.9,1.5-7.3c-0.5-2.5-4.1-4.2-7.1-3.7c-2.8,0.5-5.6,2.9-7.2,6.1c-1.4,2.8-2.5,6.2-2.7,11c-1.1,0.4-3.6-1.4-5-4.5
		c-0.7-0.9-1.2-1.2-2.4-0.7c-1.1,0.5-2.2-0.3-1,2.3c1.2,2.6,5.7,6.8,9.1,6.4c0,0,0-0.1,0-0.2c1.2,5,8.3,8.4,19.2,2.2
		c-2.8,6-5.7,10.9-7.6,13.4c-1.2,1.7-2.4,3.4-3.4,4.9c-3,3.6-4.9,6.6-3.7,7.9c1.7,1.7,4,0,6.2-2.8c2.9-3.2,6.5-8.6,10.7-17.2
		c0.8-1.7,1.6-3.3,2.2-5c1.4-2.7,2.6-4.9,2.6-4.9S282.1,91.4,284.8,89.2z M282.7,77.9c2.1-5.9,4.9-11.8,9-13.3
		c2.2-0.8,5.2-1.4,6.7,1.7c1.5,3-7.8,13-13.7,17.9l-2.2,2.1l-2.7,2.5c-0.1,0-0.1,0-0.1-0.1C280.6,85.6,281.5,82.1,282.7,77.9z
		 M258.5,83.3c1.4-2.7,3.7-4.1,4.7-4.1c1.2,0,1.8,0.8,1.9,2.1c0,3.2-5,7.5-9.2,10.2C256.3,89.8,257.1,86,258.5,83.3z"/>
	<path fill="#040000" d="M252.7,95.6C252.7,95.6,252.7,95.6,252.7,95.6C252.7,95.6,252.7,95.6,252.7,95.6z"/>
	<path fill="#040000" d="M67.2,19.2c0,0,0.2,0,0.2,0c1.2-0.1,4-0.2,9.7-0.2c5.8,0,8.6,0,9.3,0.1c0.2,0,0.3,0,0.4,0
		c0.3,0,0.4-0.1,0.4-1c0-0.8-0.1-1.1-0.3-1.1c-0.2,0-0.2,0-0.5,0c-1,0.1-4.4,0.2-8.5,0.2c-8,0-9.3,0-11.1-0.2
		C66.8,18.8,66.9,19.2,67.2,19.2z"/>
	<path fill="#040000" d="M70.4,7.7c0,0,0.1,0,0.1,0c0.1,0,0.2,0,0.4,0c0.1,0,0.4,0,0.7,0c1.6-0.1,2.8-0.1,6.2-0.1c1.9,0,2.5,0,4.3,0
		c0.3,0,0.6,0,0.7,0c0.3,0,0.5,0,0.6,0c0.2,0,0.3,0,0.4,0c0.3,0,0.4-0.2,0.4-1c0-0.8-0.1-1-0.3-1c-0.2,0-0.2,0-0.4,0
		c-0.8,0.1-3.6,0.1-6.5,0.1c-3.7,0-5.4-0.1-7-0.2c0,0.8,0.1,1.5,0.1,1.9C70.1,7.6,70.2,7.7,70.4,7.7z"/>
	<path fill="#040000" d="M102.6,13.9c0.1,0.2,0.2,0.3,0.3,0.3c0.2,0,0.6-0.2,1-0.5c0.3-0.2,0.4-0.3,0.4-0.5c0-0.1,0-0.1,0-0.2
		c0-0.1-0.4-0.9-0.6-1.3c-0.3-0.6-0.6-1.1-1-1.7c-0.6-0.9-0.8-1.1-1-1.1c-0.3,0-1.3,0.7-1.3,0.9c0,0.1,0,0.1,0.1,0.2
		C101.4,11.2,102.3,12.9,102.6,13.9z"/>
	<path fill="#040000" d="M107.3,12.3c0.2,0.7,0.2,0.7,0.4,0.7c0.1,0,0.4-0.1,0.7-0.2c0.7-0.3,0.8-0.4,0.8-0.6c0-0.4-0.8-2.1-1.5-3.2
		c-0.5-0.8-0.7-1.1-0.9-1.1c-0.2,0-0.7,0.3-1.1,0.6c-0.1,0.1-0.1,0.2-0.1,0.3c0,0.1,0,0.1,0.1,0.3C106.4,9.9,106.9,11.1,107.3,12.3z
		"/>
	<path fill="#040000" d="M113.9,8.4c-0.1,1.4-0.6,2.8-1.5,4.7c-1.9,3.7-4.6,6.6-8.4,8.7c0.4,0.2,0.8,0.4,1.1,0.7
		c0.4,0.3,0.4,0.3,0.6,0.3c0.1,0,0.4-0.2,0.8-0.4c2.2-1.5,3.9-3,5.3-4.9c1.4-1.8,2.2-3.3,3.5-6.3c0.3-0.7,0.4-0.9,0.6-1.1
		c0.2-0.2,0.3-0.3,0.3-0.4C116.1,9.3,115.4,8.9,113.9,8.4z"/>
	<path fill="#040000" d="M136.8,11.1c3.1,0.8,5.6,1.9,8.1,3.6c0.8,0.5,0.8,0.5,0.9,0.5c0.1,0,0.2-0.1,0.4-0.3
		c0.3-0.6,0.5-1.1,0.5-1.3c0-0.2-0.2-0.3-1.7-1.1c-2.8-1.5-4.9-2.3-8.2-3.2c0.1-5.2,0.1-5.8,0.2-6.3c0.1-0.3,0.1-0.3,0.1-0.4
		c0-0.3-0.5-0.4-2.5-0.5c0.2,1.4,0.2,3.2,0.2,8.6c0,6.5,0,9.5-0.1,11.4c0,0.1,0,0.1,0,0.1c0,0.3,0.1,0.4,0.7,0.4
		c0.5,0,1.1-0.1,1.2-0.1c0.1-0.1,0.2-0.2,0.2-0.5c0,0,0-0.1,0-0.1c-0.1-0.9-0.1-2.8-0.1-7.3C136.8,13.7,136.8,11.5,136.8,11.1z"/>
	<path fill="#040000" d="M164.7,5.5c0,0,0.1,0,0.3,0c0.8-0.1,2-0.1,5-0.1c0.8,0,5.9,0,6.2,0h1.2c0.5,0,0.5,0,0.6,0
		c0.4,0,0.4-0.1,0.4-0.8c0-0.9-0.1-1.1-0.3-1.1c-0.1,0-0.2,0-0.5,0c-0.5,0.1-1.6,0.1-2.8,0.1h-7.3c-1.3,0-2.2-0.1-3.2-0.2
		C164.3,5.2,164.3,5.5,164.7,5.5z"/>
	<path fill="#040000" d="M181.1,5.1c0.1,0.2,0.2,0.2,0.2,0.2c0.1,0,0.3-0.1,0.7-0.4c0.4-0.3,0.5-0.4,0.5-0.5c0-0.2-0.6-1-1.2-1.6
		c-0.7-0.8-1.2-1.2-1.5-1.3c-0.1,0-0.3,0.1-0.6,0.3C179.1,1.9,179,2,178.9,2c-0.1,0.1-0.2,0.1-0.2,0.2s0.1,0.1,0.2,0.2
		C179.9,3.3,180.5,4,181.1,5.1z"/>
	<path fill="#040000" d="M181.1,0.9c0.9,0.8,1.6,1.6,2.2,2.7c0.1,0.2,0.1,0.2,0.2,0.2c0.1,0,0.2,0,0.5-0.2c0.5-0.4,0.6-0.4,0.6-0.6
		c0-0.5-2.1-2.8-2.5-2.9c-0.2,0-1,0.5-1,0.7C181,0.8,181,0.8,181.1,0.9z"/>
	<path fill="#040000" d="M161.6,11.6c0,0,0.1,0,0.2,0c0.7-0.1,2.8-0.1,4-0.1h5.2c-0.1,4.1-1,6.6-3,8.5c-1,0.9-1.9,1.4-3.5,2.2
		c0.7,0.3,0.8,0.5,1.4,1c0.1,0.1,0.2,0.2,0.3,0.2c0.4,0,1.6-0.7,2.6-1.6c2.8-2.3,4.1-5.4,4.1-10c0-0.1,0-0.1,0-0.2h4.7
		c1.4,0,2.8,0,3.2,0c0.2,0,0.4,0,0.5,0c0.4,0,0.4-0.1,0.4-0.9c0-0.8-0.1-0.9-0.3-0.9c0,0-0.1,0-0.1,0c-0.4,0-2.2,0.1-3.8,0.1h-11.8
		c-2.8,0-3.7,0-4.6-0.2c0,0.8,0.1,1.3,0.2,1.8C161.3,11.5,161.4,11.6,161.6,11.6z"/>
	<path fill="#040000" d="M215.6,5c0.1,0.3,0.2,0.3,0.3,0.3c0.2,0,0.7-0.3,1.1-0.6c0.1-0.1,0.1-0.2,0.1-0.2c0-0.1,0-0.1-0.1-0.2
		c-0.3-0.6-0.8-1.3-1.4-2c-0.5-0.6-0.7-0.8-0.9-0.8c-0.2,0-0.5,0.1-0.9,0.5c-0.1,0.1-0.1,0.1-0.1,0.2c0,0.1,0,0.1,0.1,0.2
		C214.7,3.3,215.2,4.1,215.6,5z"/>
	<path fill="#040000" d="M217.1,0.2c-0.2,0-0.7,0.2-1,0.4c-0.1,0.1-0.1,0.1-0.1,0.2c0,0.1,0,0.1,0.1,0.3c0.8,0.9,1.4,1.6,1.8,2.6
		c0.1,0.2,0.2,0.3,0.3,0.3c0,0,0.1,0,0.1,0c0.6-0.2,1-0.5,1-0.7c0-0.1,0-0.1-0.1-0.2C218.9,2,217.5,0.2,217.1,0.2z"/>
	<path fill="#040000" d="M196.1,9.6c0.1,0.2,0.1,0.2,0.3,0.2c0.1,0,0.1,0,0.4-0.1c0.8-0.1,1.5-0.1,4.6-0.2c0,1.2-0.1,4.4-0.1,4.7
		c0,0.2,0,0.3,0,0.4c0,0.5,0.1,0.6,0.7,0.6c1,0,1.2-0.1,1.2-0.5c0-0.1,0-0.3,0-0.4c0-0.9,0-2.5,0-4.8c0.7,0,1.8,0,3.5,0
		c1.5,0,2.6,0,3.7,0c-0.1,1.7-0.1,2.4-0.2,2.9c-0.2,2.2-0.7,3.8-1.6,5.1c-1.3,1.9-3.4,3.4-6.3,4.3c0.6,0.3,0.9,0.6,1.3,1
		c0.1,0.1,0.2,0.2,0.3,0.2c0.2,0,0.9-0.3,1.6-0.7c2.7-1.4,4.5-3.3,5.5-5.9c0.7-1.7,1-3.8,1-7c3.3,0,4.2,0,5,0.1c0,0,0.1,0,0.1,0
		c0.2,0,0.3-0.2,0.3-0.8c0-0.8-0.1-1.1-0.4-1.1c-0.1,0-0.1,0-0.1,0c-1.5,0.1-1.5,0.1-5,0.1v-1c0-2.5,0-2.9,0.2-3.6
		c0.1-0.2,0.1-0.2,0.1-0.3c0-0.1-0.1-0.2-0.3-0.2c-0.5-0.1-1.2-0.2-2-0.2c0.2,1.2,0.2,1.9,0.2,4.1c0,0.6,0,0.9,0,1.3h-7.1
		c0-0.2,0-0.4,0-0.5V6.7c0-1.9,0.1-3,0.2-3.4c0.1-0.2,0.1-0.2,0.1-0.3c0-0.3-0.8-0.5-2.3-0.5c0.2,1.1,0.2,2.2,0.2,5.3
		c-3,0-4.4,0-5.5-0.2C195.9,8.5,196,9.2,196.1,9.6z"/>
	<path fill="#040000" d="M242.4,20.8c0-0.7-0.1-2.2-0.1-3.7V8.4c1.8-1.4,2.6-2.1,4.2-3.6c0.7-0.7,1.1-1,1.4-1.1
		c0.2-0.1,0.2-0.2,0.2-0.3c0-0.3-0.7-1-1.8-1.7c-1,1.8-3.4,4.1-6.6,6.4c-3,2.2-5.9,3.7-9.7,5.1c0.6,0.4,0.9,0.6,1.3,1.1
		c0.1,0.2,0.2,0.2,0.3,0.2c0.2,0,0.7-0.2,1.9-0.8c2.4-1.1,4.7-2.4,6.8-3.9v7.3c0,2.3,0,3.6-0.1,4.8c0,0.1,0,0.1,0,0.2
		c0,0.3,0.1,0.4,0.7,0.4c1.1,0,1.4-0.1,1.4-0.5c0-0.1,0-0.1,0-0.2c0,0,0-0.2,0-0.5C242.4,21.3,242.4,21.1,242.4,20.8z"/>
	<path fill="#040000" d="M264.8,5.9c1.6,1,3.1,2.2,4.3,3.5c0.1,0.1,0.2,0.2,0.3,0.2c0.3,0,1.3-1.1,1.3-1.5c0-0.5-4.5-4-5.3-4
		c-0.2,0-0.3,0.1-0.5,0.3c-0.4,0.5-0.7,0.8-0.7,1C264.2,5.6,264.2,5.6,264.8,5.9z"/>
	<path fill="#040000" d="M265.6,21.3c0.1,0,0.2-0.1,0.3-0.2c0.3-0.3,0.8-0.5,1.5-0.8c4.1-1.7,7.1-3.6,10-6.2c2.3-2,4.8-5,4.8-5.6
		c0-0.1,0-0.2-0.1-0.4c-0.5-0.9-0.6-1.2-0.8-1.7c-1.6,2.5-2.7,3.8-4.5,5.5c-1.8,1.6-3.7,3.1-6,4.4c-2.4,1.4-4.8,2.4-6.7,2.8
		C264.6,20.3,265.3,21.3,265.6,21.3z"/>
</g>
</svg>
