<?xml version="1.0" encoding="utf-8"?>
<!-- Generator: Adobe Illustrator 17.1.0, SVG Export Plug-In . SVG Version: 6.00 Build 0)  -->
<!DOCTYPE svg PUBLIC "-//W3C//DTD SVG 1.1//EN" "http://www.w3.org/Graphics/SVG/1.1/DTD/svg11.dtd">
<svg version="1.1" id="レイヤー_1" xmlns="http://www.w3.org/2000/svg" xmlns:xlink="http://www.w3.org/1999/xlink" x="0px"
	 y="0px" viewBox="0 0 129.3 57.7" enable-background="new 0 0 129.3 57.7" xml:space="preserve">
<g>
	<path fill="#2E2624" d="M11.9,50.6c-0.1-0.1-0.1-0.2-0.2-0.5c-0.1-0.3-0.1-1-0.1-2v-2c0-1.5,0-2.5-0.1-2.8c-0.1-0.6-0.3-1-0.6-1.4
		c-0.3-0.4-0.7-0.7-1.3-0.9s-1.2-0.4-1.8-0.4c-0.6,0-1.2,0.1-1.8,0.3l-2.2,1.8c0-0.9,0-1.4,0.1-1.7c0-0.1,0-0.1,0-0.2
		c0-0.1,0-0.1,0-0.2c0,0-0.1-0.1-0.1-0.1s-0.2,0-0.3,0.1c-0.7,0.3-1.9,0.6-3.5,0.8v0.6c0.9,0,1.4,0,1.5,0.1c0.1,0,0.2,0.1,0.3,0.2
		c0.1,0.1,0.1,0.3,0.1,0.8c0,0.7,0,1.3,0,1.9v1.3c0,2-0.1,3.1-0.1,3.2c0,0.4-0.1,0.6-0.2,0.8c0,0.1-0.1,0.1-0.2,0.2
		c-0.1,0-0.2,0.1-0.4,0.1l-1.1,0v0.6c1.5-0.1,2.6-0.1,3.2-0.1c0.8,0,1.6,0,2.6,0.1v-0.6c-0.8,0-1.2,0-1.3,0c-0.1,0-0.2-0.1-0.3-0.1
		c-0.1,0-0.1-0.1-0.1-0.2C4,50.3,3.9,50,3.9,49.7c0-0.2,0-1.2-0.1-3.1v-1.3c0-0.8,0.1-1.4,0.3-1.7s0.6-0.6,1-0.9s1-0.4,1.6-0.4
		c0.7,0,1.2,0.2,1.7,0.5s0.8,0.7,0.9,1.2c0.1,0.4,0.1,1.1,0.1,2.3v1.9c0,0.5-0.1,1.6-0.2,3.5c1-0.1,1.7-0.1,2.2-0.1
		c0.5,0,1.1,0,1.9,0.1v-0.6l-1.3,0C12.1,50.7,11.9,50.7,11.9,50.6z"/>
	<path fill="#2E2624" d="M17.3,38.3c0.4,0,0.7-0.1,0.9-0.4c0.3-0.2,0.4-0.5,0.4-0.9c0-0.3-0.1-0.6-0.4-0.9s-0.6-0.4-0.9-0.4
		s-0.7,0.1-0.9,0.4s-0.4,0.5-0.4,0.9c0,0.3,0.1,0.6,0.4,0.9C16.6,38.1,16.9,38.3,17.3,38.3z"/>
	<path fill="#2E2624" d="M18.7,50.6c-0.1,0-0.1-0.1-0.2-0.2c-0.1-0.2-0.1-0.4-0.1-0.8c0-0.2,0-1.2-0.1-3.1v-2c0-0.8,0-2,0.1-3.6
		l-0.3-0.2c-1,0.5-2.3,0.8-3.8,0.9v0.6c0.9,0,1.4,0,1.6,0.1s0.2,0.1,0.3,0.3c0.1,0.2,0.1,0.9,0.1,2v2c0,2-0.1,3.1-0.1,3.2
		c0,0.4-0.1,0.6-0.2,0.8c0,0.1-0.1,0.1-0.2,0.2c-0.1,0-0.2,0.1-0.4,0.1l-1.1,0v0.6c1.4-0.1,2.4-0.1,3.1-0.1c0.7,0,1.7,0,2.8,0.1
		v-0.6c-0.8,0-1.3,0-1.3,0C18.9,50.7,18.8,50.7,18.7,50.6z"/>
	<path fill="#2E2624" d="M29.3,45.9c-0.4-0.2-1.1-0.4-2-0.6l-1.9-0.5c-0.4-0.1-0.7-0.2-0.9-0.4c-0.2-0.1-0.4-0.3-0.5-0.5
		c-0.1-0.2-0.2-0.5-0.2-0.7c0-0.5,0.2-1,0.6-1.4s1-0.6,1.7-0.6c0.5,0,0.9,0.1,1.2,0.2c0.3,0.1,0.6,0.3,0.8,0.4
		c0.2,0.2,0.4,0.3,0.4,0.4s0.2,0.3,0.2,0.5c0.1,0.2,0.1,0.5,0.1,1.1h0.7c0-0.9,0.1-1.7,0.1-2.5c-0.4-0.2-0.9-0.4-1.6-0.5
		s-1.2-0.2-1.7-0.2c-0.8,0-1.6,0.2-2.3,0.5c-0.7,0.3-1.2,0.7-1.5,1.2c-0.3,0.5-0.5,1-0.5,1.6c0,0.4,0.1,0.8,0.2,1.1
		c0.2,0.3,0.4,0.6,0.6,0.8s0.6,0.4,1,0.6c0.3,0.1,0.9,0.3,1.9,0.5c1,0.2,1.6,0.4,1.9,0.5c0.3,0.1,0.5,0.3,0.7,0.6
		c0.2,0.2,0.2,0.5,0.2,0.8c0,0.7-0.3,1.2-0.8,1.6c-0.5,0.4-1.2,0.6-2,0.6c-0.5,0-0.8,0-1.1,0c-0.2,0-0.5-0.1-0.7-0.2
		s-0.4-0.2-0.6-0.4s-0.3-0.4-0.4-0.6c-0.1-0.2-0.2-0.5-0.2-0.7c0-0.3-0.1-0.6-0.1-1h-0.7c0,1,0,1.6-0.1,1.9s-0.1,0.6-0.1,0.9
		c0,0.1,0,0.1,0,0.2c0,0.1,0,0.1,0,0.1c0,0,0.4,0.1,1,0.2c1.1,0.2,2,0.3,2.7,0.3c1.5,0,2.6-0.4,3.5-1.1c0.9-0.7,1.3-1.6,1.3-2.6
		c0-0.5-0.1-0.9-0.3-1.3S29.6,46.1,29.3,45.9z"/>
	<path fill="#2E2624" d="M43.7,50.6c-0.1,0-0.1-0.1-0.1-0.2c-0.1-0.2-0.1-0.4-0.1-0.8c0-0.1,0-0.7,0-1.6l0-1.5v-2
		c0-1-0.1-1.7-0.4-2.2s-0.7-0.9-1.3-1.2c-0.6-0.3-1.3-0.5-2-0.5c-0.4,0-0.8,0.1-1.2,0.2c-0.3,0.1-0.5,0.1-0.7,0.2
		c-0.1,0-0.2,0.1-0.4,0.3c-0.1,0.1-0.4,0.3-0.9,0.8c-0.5,0.4-0.8,0.7-0.9,0.8v-3.3l0-1.7c0-0.9,0-2.1,0.1-3.4l0-0.4
		c0-0.1,0-0.2,0-0.2c0-0.1,0-0.1,0-0.1s-0.1-0.1-0.1-0.1s-0.1,0-0.2,0.1c-0.7,0.3-1.9,0.6-3.7,0.8v0.7c1,0,1.5,0,1.6,0.1
		c0.1,0,0.1,0.1,0.2,0.2c0.1,0.1,0.1,0.6,0.1,1.5c0,1.3,0.1,2.6,0.1,3.8v5.8c0,2-0.1,3.1-0.1,3.2c0,0.4-0.1,0.6-0.2,0.8
		c0,0.1-0.1,0.1-0.2,0.2c-0.1,0-0.2,0.1-0.4,0.1l-1.1,0v0.6c1.5-0.1,2.6-0.1,3-0.1c0.5,0,1.5,0,2.9,0.1v-0.6c-0.8,0-1.3,0-1.3,0
		c-0.1,0-0.2-0.1-0.3-0.1s-0.1-0.1-0.1-0.2c-0.1-0.2-0.1-0.4-0.1-0.8c0-0.2,0-1.2-0.1-3.1v-1.3c0-0.6,0-1,0-1.1
		c0-0.2,0.1-0.4,0.2-0.5c0.2-0.3,0.4-0.5,0.7-0.8c0.3-0.2,0.6-0.4,0.9-0.5s0.7-0.2,1.1-0.2c0.7,0,1.2,0.2,1.6,0.5
		c0.4,0.3,0.7,0.6,0.8,1c0.1,0.4,0.2,1,0.2,1.9v2.8c0,1-0.1,2.1-0.2,3.2c1.1,0,1.8-0.1,2.1-0.1c0.4,0,1.1,0,1.9,0.1v-0.6
		c-0.8,0-1.2,0-1.2,0C43.9,50.7,43.8,50.7,43.7,50.6z"/>
	<path fill="#2E2624" d="M50.6,50.6c-0.1,0-0.1-0.1-0.2-0.2c-0.1-0.2-0.1-0.4-0.1-0.8c0-0.2,0-1.2-0.1-3.1v-2c0-0.8,0-2,0.1-3.6
		l-0.3-0.2c-1,0.5-2.3,0.8-3.8,0.9v0.6c0.9,0,1.4,0,1.6,0.1s0.2,0.1,0.3,0.3c0.1,0.2,0.1,0.9,0.1,2v2c0,2-0.1,3.1-0.1,3.2
		c0,0.4-0.1,0.6-0.2,0.8c0,0.1-0.1,0.1-0.2,0.2c-0.1,0-0.2,0.1-0.4,0.1l-1.1,0v0.6c1.4-0.1,2.4-0.1,3.1-0.1c0.7,0,1.7,0,2.8,0.1
		v-0.6c-0.8,0-1.3,0-1.3,0C50.7,50.7,50.7,50.7,50.6,50.6z"/>
	<path fill="#2E2624" d="M49.1,38.3c0.4,0,0.7-0.1,0.9-0.4c0.3-0.2,0.4-0.5,0.4-0.9c0-0.3-0.1-0.6-0.4-0.9s-0.6-0.4-0.9-0.4
		s-0.7,0.1-0.9,0.4s-0.4,0.5-0.4,0.9c0,0.3,0.1,0.6,0.4,0.9C48.4,38.1,48.7,38.3,49.1,38.3z"/>
	<path fill="#2E2624" d="M65.1,50.6C65,50.5,65,50.4,65,50.1c-0.1-0.3-0.1-1-0.1-2v-2c0-1.5,0-2.5-0.1-2.8c-0.1-0.6-0.3-1-0.6-1.4
		c-0.3-0.4-0.7-0.7-1.3-0.9s-1.2-0.4-1.8-0.4c-0.6,0-1.2,0.1-1.8,0.3l-2.2,1.8c0-0.9,0-1.4,0.1-1.7c0-0.1,0-0.1,0-0.2
		c0-0.1,0-0.1,0-0.2c0,0-0.1-0.1-0.1-0.1s-0.2,0-0.3,0.1c-0.7,0.3-1.9,0.6-3.5,0.8v0.6c0.9,0,1.4,0,1.5,0.1c0.1,0,0.2,0.1,0.3,0.2
		c0.1,0.1,0.1,0.3,0.1,0.8c0,0.7,0,1.3,0,1.9v1.3c0,2-0.1,3.1-0.1,3.2c0,0.4-0.1,0.6-0.2,0.8c0,0.1-0.1,0.1-0.2,0.2
		c-0.1,0-0.2,0.1-0.4,0.1l-1.1,0v0.6c1.5-0.1,2.6-0.1,3.2-0.1c0.8,0,1.6,0,2.6,0.1v-0.6c-0.8,0-1.2,0-1.3,0c-0.1,0-0.2-0.1-0.3-0.1
		c-0.1,0-0.1-0.1-0.1-0.2c-0.1-0.2-0.1-0.4-0.1-0.8c0-0.2,0-1.2-0.1-3.1v-1.3c0-0.8,0.1-1.4,0.3-1.7s0.6-0.6,1-0.9s1-0.4,1.6-0.4
		c0.7,0,1.2,0.2,1.7,0.5s0.8,0.7,0.9,1.2c0.1,0.4,0.1,1.1,0.1,2.3v1.9c0,0.5-0.1,1.6-0.2,3.5c1-0.1,1.7-0.1,2.2-0.1
		c0.5,0,1.1,0,1.9,0.1v-0.6l-1.3,0C65.3,50.7,65.2,50.7,65.1,50.6z"/>
	<path fill="#2E2624" d="M77.3,50.6c-0.1-0.1-0.2-0.1-0.2-0.2C77,50.2,77,50,77,49.6v-3.3l0.1-2c0-0.7-0.1-1.3-0.3-1.7
		c-0.3-0.6-0.8-1-1.4-1.4s-1.4-0.5-2.3-0.5c-0.6,0-1.1,0.1-1.6,0.2c-0.6,0.2-1.4,0.6-2.4,1.2c0,0.2,0,0.4,0,0.7c0,0.3,0,0.5,0,0.7
		l0.6,0.2c0.1-0.3,0.3-0.6,0.5-1l0.2-0.4c0.1-0.1,0.3-0.2,0.6-0.3c0.3-0.1,0.8-0.2,1.2-0.2c0.6,0,1.2,0.1,1.6,0.4s0.8,0.6,0.9,1
		c0.2,0.4,0.3,0.9,0.3,1.6c-1,0.1-2,0.3-3,0.5s-1.8,0.4-2.2,0.6c-0.3,0.1-0.5,0.3-0.8,0.6s-0.5,0.6-0.7,1s-0.3,0.9-0.3,1.4
		c0,0.8,0.3,1.4,0.8,1.9s1.3,0.7,2.2,0.7c0.5,0,0.8-0.1,1.1-0.2s1.2-0.8,2.8-1.9l-0.1,2c0.8-0.1,1.4-0.1,1.9-0.1c0.5,0,1,0,1.7,0.1
		v-0.6l-0.8-0.1C77.6,50.7,77.4,50.7,77.3,50.6z M75.1,48.5c-0.5,0.6-1,1-1.5,1.3c-0.5,0.3-1,0.4-1.6,0.4c-0.6,0-1-0.2-1.3-0.5
		c-0.3-0.3-0.5-0.7-0.5-1.3c0-0.5,0.1-0.9,0.3-1.2c0.1-0.3,0.3-0.4,0.5-0.6c0.3-0.2,0.8-0.4,1.5-0.6c0.7-0.2,1.6-0.4,2.6-0.5V48.5z"
		/>
	<path fill="#2E2624" d="M82.9,48.9c-0.4,0-0.7,0.1-1,0.4s-0.4,0.6-0.4,0.9c0,0.4,0.1,0.7,0.4,0.9s0.6,0.4,1,0.4
		c0.4,0,0.7-0.1,1-0.4s0.4-0.6,0.4-0.9c0-0.4-0.1-0.7-0.4-0.9S83.3,48.9,82.9,48.9z"/>
	<path fill="#2E2624" d="M105.8,50.6c-0.1,0-0.1-0.1-0.1-0.2c-0.1-0.2-0.1-0.4-0.1-0.8c0-0.2,0-0.7,0-1.6l0-1.5v-1.2
		c0-1.3-0.1-2.1-0.2-2.4c-0.2-0.6-0.6-1.1-1.2-1.5s-1.3-0.7-2.2-0.7c-0.4,0-0.7,0-1.1,0.1c-0.4,0.1-0.7,0.2-0.9,0.3
		c-0.1,0.1-0.3,0.2-0.6,0.5L98,42.8c-0.3-0.7-0.8-1.2-1.3-1.5c-0.6-0.3-1.2-0.5-2-0.5c-0.4,0-0.7,0-1.1,0.1
		c-0.3,0.1-0.6,0.2-0.8,0.3c0,0-0.2,0.1-0.4,0.3L91,42.7c0-0.7,0-1.2,0.1-1.6c0-0.1,0-0.1,0-0.2c0-0.1,0-0.1,0-0.2
		c0,0-0.1-0.1-0.1-0.1s-0.2,0-0.3,0.1c-0.7,0.3-1.9,0.6-3.5,0.8v0.6c0.9,0,1.4,0,1.5,0.1c0.1,0,0.2,0.1,0.3,0.2
		c0.1,0.1,0.1,0.3,0.1,0.8c0,0.7,0,1.3,0,1.9v1.3c0,2-0.1,3.1-0.1,3.2c0,0.4-0.1,0.6-0.2,0.8c0,0.1-0.1,0.1-0.2,0.2
		c-0.1,0-0.2,0.1-0.4,0.1l-1.1,0v0.6c1.4-0.1,2.4-0.1,3-0.1c0.8,0,1.7,0,2.8,0.1v-0.6c-0.8,0-1.2,0-1.3,0c-0.1,0-0.2-0.1-0.3-0.1
		c-0.1,0-0.1-0.1-0.1-0.2C91.1,50.3,91,50,91,49.7c0-0.2,0-1.2-0.1-3.1v-0.7c0-0.7,0-1.3,0.1-1.8c0-0.3,0.2-0.6,0.4-0.9
		c0.2-0.3,0.5-0.5,1-0.7c0.4-0.2,0.9-0.3,1.3-0.3c0.5,0,1,0.1,1.4,0.4s0.7,0.6,0.8,1.1c0.2,0.4,0.2,1.1,0.2,2.1v0.9
		c0,2-0.1,3.1-0.1,3.2c0,0.4-0.1,0.6-0.2,0.8c0,0.1-0.1,0.1-0.2,0.2c-0.1,0-0.2,0.1-0.4,0.1l-1.1,0v0.6c1.5-0.1,2.5-0.1,3.1-0.1
		c0.7,0,1.6,0,2.8,0.1v-0.6c-0.8,0-1.3,0-1.3,0c-0.1,0-0.2-0.1-0.3-0.1c-0.1,0-0.1-0.1-0.1-0.2c-0.1-0.2-0.1-0.4-0.1-0.8
		c0-0.2,0-0.7,0-1.6l0-1.5v-0.7c0-1.1,0.1-1.8,0.2-2.2c0.1-0.4,0.4-0.7,0.8-1c0.5-0.4,1.1-0.5,1.8-0.5c0.6,0,1.1,0.1,1.5,0.4
		s0.7,0.7,0.8,1.1c0.1,0.5,0.2,1.3,0.2,2.6v1l0,1.2l-0.1,3.1c1-0.1,1.7-0.1,2.1-0.1c0.4,0,1,0,2,0.1v-0.6c-0.8,0-1.2,0-1.3,0
		C106,50.7,105.9,50.7,105.8,50.6z"/>
	<path fill="#2E2624" d="M115.2,34.8c-0.4,0-0.8,0.1-1.1,0.2c-0.2,0.1-0.6,0.4-1.1,0.9c-0.8,0.7-1.3,1.3-1.7,1.8
		c-0.2,0.3-0.4,0.7-0.5,1.1s-0.2,1.1-0.2,2v0.7c-0.5,0.3-1,0.5-1.6,0.8v0.5l1.6-0.1v3.9c0,2-0.1,3.1-0.1,3.2c0,0.4-0.1,0.6-0.2,0.8
		c0,0.1-0.1,0.1-0.2,0.2c-0.1,0-0.2,0.1-0.4,0.1l-1.1,0v0.6c1.6-0.1,2.7-0.1,3-0.1c0.4,0,1.5,0,3.3,0.1v-0.6c-1-0.1-1.7-0.1-1.9-0.2
		c-0.1,0-0.2-0.1-0.3-0.1s-0.1-0.1-0.1-0.3s-0.1-0.4-0.1-0.9c0-1.3-0.1-2.2-0.1-2.7v-4c0.6,0,1.1,0,1.5,0c0.3,0,0.8,0,1.5,0l0.2-1.2
		l-0.1-0.1c-0.6,0.1-1.2,0.1-1.8,0.1h-1.2v-2.3c0-0.9,0.1-1.6,0.2-1.9c0.1-0.3,0.3-0.5,0.6-0.7s0.6-0.2,1-0.2c0.3,0,0.6,0,0.8,0.1
		c0.2,0.1,0.5,0.2,0.7,0.4l0.3-0.1l0-1.8C115.8,34.9,115.5,34.8,115.2,34.8z"/>
	<path fill="#2E2624" d="M129.3,41.8l-0.1-0.2c-0.8,0-1.9,0-3.4,0c-0.4-0.3-0.9-0.6-1.4-0.7c-0.5-0.2-1-0.2-1.5-0.2
		c-0.8,0-1.7,0.2-2.7,0.6c-1,0.4-1.6,0.9-2.1,1.5c-0.4,0.6-0.6,1.3-0.6,2c0,0.5,0.1,1,0.3,1.4c0.2,0.4,0.5,0.8,0.9,1
		c0.4,0.2,0.9,0.5,1.6,0.7c-0.8,0.6-1.4,1-1.8,1.3c-0.2,0.7-0.4,1.1-0.4,1.2c0,0.2,0.1,0.4,0.3,0.5c0.2,0.2,0.6,0.4,1.2,0.6
		c-0.4,0.3-1.1,0.7-2.1,1.1c-0.2,0.3-0.4,0.6-0.5,0.9c-0.1,0.3-0.2,0.6-0.2,0.9c0,0.6,0.2,1.1,0.5,1.7c0.4,0.5,0.9,1,1.7,1.3
		c0.8,0.3,1.7,0.5,2.8,0.5c1.3,0,2.5-0.2,3.5-0.7c1-0.5,1.8-1.1,2.3-1.9c0.5-0.8,0.8-1.6,0.8-2.3c0-0.6-0.1-1.1-0.3-1.5
		c-0.2-0.5-0.6-0.8-1-1c-0.5-0.2-1.1-0.3-2-0.3l-2.5,0.1c-0.9,0-1.5,0-1.9-0.1c-0.2-0.1-0.4-0.2-0.5-0.3s-0.2-0.3-0.2-0.5
		c0-0.2,0-0.3,0.1-0.4c0.1-0.2,0.5-0.5,1-0.9c0.7,0,1.3,0,1.8-0.1c0.7-0.1,1.3-0.4,1.9-0.8s1-0.8,1.4-1.4c0.3-0.5,0.5-1.1,0.5-1.6
		c0-0.4-0.1-0.8-0.3-1.2h2.2C128.8,42.5,129,42.2,129.3,41.8z M120.4,51.8c0.2-0.1,0.4-0.2,0.5-0.2c0.3,0,1,0,2.2,0
		c1.3,0,2.1,0,2.3,0c0.3,0.1,0.6,0.2,0.8,0.3c0.2,0.1,0.3,0.3,0.5,0.6c0.1,0.2,0.2,0.6,0.2,1.1c0,0.5-0.2,1.1-0.5,1.6
		c-0.3,0.5-0.9,1-1.5,1.3s-1.4,0.5-2.3,0.5c-1.1,0-2-0.3-2.6-0.8s-1-1.2-1-2c0-0.4,0.1-0.8,0.2-1.3c0.1-0.2,0.2-0.4,0.3-0.5
		C119.4,52.5,119.8,52.2,120.4,51.8z M124,46.5c-0.5,0.4-1.1,0.6-1.8,0.6c-0.5,0-1-0.1-1.4-0.4s-0.7-0.6-0.9-1.1
		c-0.2-0.5-0.3-1-0.3-1.5c0-0.8,0.2-1.5,0.7-1.9s1.1-0.7,1.8-0.7c0.7,0,1.3,0.3,1.9,0.8s0.8,1.3,0.8,2.2
		C124.8,45.4,124.6,46.1,124,46.5z"/>
	<path fill="#2E2624" d="M76.8,0L53.3,0v2.9l23.5,0C76.8,1.5,76.8,0,76.8,0z"/>
	<rect x="63.5" y="5.5" fill="#2E2624" width="3" height="3"/>
	<polygon fill="#2E2624" points="60.5,14.5 60.5,17.5 53.3,17.5 53.3,20.5 60.5,20.5 60.5,23.5 69.6,23.5 69.6,20.5 76.8,20.5 
		76.8,17.5 65,17.5 63.5,17.5 63.5,14.5 76.8,14.5 76.8,5.5 69.6,5.5 69.6,8.5 73.8,8.5 73.8,11.5 56.3,11.5 56.3,8.5 60.5,8.5 
		60.5,5.5 53.3,5.5 53.3,14.5 	"/>
</g>
</svg>
